:FULLY-SPECIFIED
:FORCE-ALL-JOINTS-BE-3DOF
:DEGREES
259
root 9.62026 16.5613 -0.337069 8.16275 -4.98634 -0.212303
lfemur -32.5324 8.10301 -25.6949
ltibia 37.1839 0 0
lfoot -12.2958 5.68857 0
ltoes 3.36559 0 0
rfemur -5.12048 -0.360254 18.422
rtibia 44.2856 0 0
rfoot 1.01799 -1.26013 0
rtoes -15.9759 0 0
lowerback -5.54967 0.601454 -1.59997
upperback -2.10526 0.85745 1.82771
thorax 0.945603 0.428914 2.81035
lowerneck -20.1135 -5.07406 -12.8923
upperneck 19.3232 -6.25256 13.2521
head 10.3786 -2.36511 5.9932
lclavicle 9.45961e-015 2.10199e-014 0
lhumerus -35.7995 -8.60303 88.0078
lradius 21.3626 0 0
lwrist -3.3334 0 0
lhand -10.833 -23.9359 0
lfingers 7.12502 0 0
lthumb 15.1805 5.47365 0
rclavicle 9.45961e-015 2.10199e-014 0
rhumerus -46.9319 9.01187 -86.2163
rradius 41.1389 0 0
rwrist -24.5698 0 0
rhand -29.6105 -25.2812 0
rfingers 7.12502 0 0
rthumb -2.94125 -55.2402 0
260
root 9.63925 16.5749 -0.208591 8.03153 -4.84408 -0.101425
lfemur -31.6473 7.9813 -25.8333
ltibia 36.7752 0 0
lfoot -12.5987 5.68853 0
ltoes 3.21313 0 0
rfemur -6.32107 -0.424033 18.3993
rtibia 44.9944 0 0
rfoot -0.00368065 -1.78433 0
rtoes -15.9784 0 0
lowerback -5.52089 0.460712 -1.66546
upperback -2.01668 0.67225 1.84407
thorax 1.03354 0.333992 2.85203
lowerneck -20.1935 -5.00744 -12.8253
upperneck 19.451 -6.16076 13.1684
head 10.4209 -2.32492 5.96961
lclavicle 7.22719e-015 2.07762e-014 0
lhumerus -34.9365 -8.90846 87.9324
lradius 21.5186 0 0
lwrist -3.15449 0 0
lhand -10.9914 -23.945 0
lfingers 7.12502 0 0
lthumb 15.0279 5.47538 0
rclavicle 7.22719e-015 2.07762e-014 0
rhumerus -46.8753 8.94098 -86.0476
rradius 41.1791 0 0
rwrist -24.485 0 0
rhand -29.5792 -25.1114 0
rfingers 7.12502 0 0
rthumb -2.91108 -55.0709 0
261
root 9.65824 16.5885 -0.0801132 7.90031 -4.70181 0.0094529
lfemur -30.7622 7.85959 -25.9717
ltibia 36.3665 0 0
lfoot -12.9017 5.68849 0
ltoes 3.06067 0 0
rfemur -7.52167 -0.487811 18.3766
rtibia 45.7033 0 0
rfoot -1.02535 -2.30852 0
rtoes -15.9808 0 0
lowerback -5.49211 0.319969 -1.73096
upperback -1.92811 0.48705 1.86043
thorax 1.12147 0.239071 2.89371
lowerneck -20.2735 -4.94081 -12.7583
upperneck 19.5788 -6.06895 13.0846
head 10.4632 -2.28473 5.94602
lclavicle 4.99477e-015 2.05325e-014 0
lhumerus -34.0734 -9.2139 87.857
lradius 21.6746 0 0
lwrist -2.97558 0 0
lhand -11.1499 -23.9542 0
lfingers 7.12502 0 0
lthumb 14.8752 5.47711 0
rclavicle 4.99477e-015 2.05325e-014 0
rhumerus -46.8187 8.87009 -85.8789
rradius 41.2192 0 0
rwrist -24.4002 0 0
rhand -29.548 -24.9417 0
rfingers 7.12502 0 0
rthumb -2.88091 -54.9015 0
262
root 9.67723 16.6021 0.0483648 7.76908 -4.55955 0.120331
lfemur -29.877 7.73787 -26.1101
ltibia 35.9578 0 0
lfoot -13.2046 5.68845 0
ltoes 2.90821 0 0
rfemur -8.72226 -0.55159 18.3539
rtibia 46.4121 0 0
rfoot -2.04702 -2.83272 0
rtoes -15.9833 0 0
lowerback -5.46333 0.179226 -1.79645
upperback -1.83953 0.30185 1.87679
thorax 1.2094 0.144149 2.9354
lowerneck -20.3534 -4.87419 -12.6914
upperneck 19.7065 -5.97715 13.0009
head 10.5054 -2.24453 5.92242
lclavicle 2.76235e-015 2.02889e-014 0
lhumerus -33.2104 -9.51934 87.7816
lradius 21.8305 0 0
lwrist -2.79668 0 0
lhand -11.3083 -23.9633 0
lfingers 7.12502 0 0
lthumb 14.7226 5.47884 0
rclavicle 2.76235e-015 2.02889e-014 0
rhumerus -46.7621 8.7992 -85.7102
rradius 41.2594 0 0
rwrist -24.3155 0 0
rhand -29.5168 -24.772 0
rfingers 7.12502 0 0
rthumb -2.85074 -54.7322 0
263
root 9.69623 16.6157 0.176843 7.63786 -4.41729 0.231208
lfemur -28.9919 7.61616 -26.2485
ltibia 35.5491 0 0
lfoot -13.5075 5.6884 0
ltoes 2.75575 0 0
rfemur -9.92285 -0.615369 18.3312
rtibia 47.1209 0 0
rfoot -3.06869 -3.35692 0
rtoes -15.9858 0 0
lowerback -5.43455 0.0384839 -1.86195
upperback -1.75096 0.11665 1.89315
thorax 1.29734 0.0492274 2.97708
lowerneck -20.4334 -4.80756 -12.6244
upperneck 19.8343 -5.88535 12.9172
head 10.5477 -2.20434 5.89883
lclavicle 5.29929e-016 2.00452e-014 0
lhumerus -32.3474 -9.82477 87.7062
lradius 21.9865 0 0
lwrist -2.61777 0 0
lhand -11.4667 -23.9724 0
lfingers 7.12502 0 0
lthumb 14.5699 5.48057 0
rclavicle 5.29929e-016 2.00452e-014 0
rhumerus -46.7055 8.72831 -85.5414
rradius 41.2996 0 0
rwrist -24.2307 0 0
rhand -29.4855 -24.6022 0
rfingers 7.12502 0 0
rthumb -2.82056 -54.5629 0
264
root 9.71522 16.6293 0.305321 7.50663 -4.27502 0.342086
lfemur -28.1068 7.49445 -26.3869
ltibia 35.1404 0 0
lfoot -13.8104 5.68836 0
ltoes 2.60329 0 0
rfemur -11.1234 -0.679148 18.3085
rtibia 47.8297 0 0
rfoot -4.09036 -3.88112 0
rtoes -15.9882 0 0
lowerback -5.40577 -0.102259 -1.92745
upperback -1.66238 -0.06855 1.90951
thorax 1.38527 -0.0456942 3.01876
lowerneck -20.5134 -4.74094 -12.5575
upperneck 19.9621 -5.79355 12.8335
head 10.59 -2.16415 5.87523
lclavicle -1.70249e-015 1.98015e-014 0
lhumerus -31.4843 -10.1302 87.6308
lradius 22.1425 0 0
lwrist -2.43886 0 0
lhand -11.6251 -23.9815 0
lfingers 7.12502 0 0
lthumb 14.4173 5.4823 0
rclavicle -1.70249e-015 1.98015e-014 0
rhumerus -46.6489 8.65742 -85.3727
rradius 41.3398 0 0
rwrist -24.1459 0 0
rhand -29.4543 -24.4325 0
rfingers 7.12502 0 0
rthumb -2.79039 -54.3935 0
265
root 9.73421 16.6428 0.433799 7.37541 -4.13276 0.452964
lfemur -27.2216 7.37274 -26.5254
ltibia 34.7318 0 0
lfoot -14.1133 5.68832 0
ltoes 2.45083 0 0
rfemur -12.324 -0.742927 18.2857
rtibia 48.5386 0 0
rfoot -5.11204 -4.40532 0
rtoes -15.9907 0 0
lowerback -5.377 -0.243001 -1.99294
upperback -1.57381 -0.25375 1.92588
thorax 1.4732 -0.140616 3.06045
lowerneck -20.5933 -4.67431 -12.4905
upperneck 20.0898 -5.70175 12.7497
head 10.6322 -2.12395 5.85164
lclavicle -3.93491e-015 1.95579e-014 0
lhumerus -30.6213 -10.4356 87.5553
lradius 22.2984 0 0
lwrist -2.25996 0 0
lhand -11.7835 -23.9907 0
lfingers 7.12502 0 0
lthumb 14.2646 5.48402 0
rclavicle -3.93491e-015 1.95579e-014 0
rhumerus -46.5922 8.58653 -85.204
rradius 41.38 0 0
rwrist -24.0611 0 0
rhand -29.423 -24.2628 0
rfingers 7.12502 0 0
rthumb -2.76022 -54.2242 0
266
root 9.7532 16.6564 0.562277 7.24418 -3.99049 0.563842
lfemur -26.3365 7.25103 -26.6638
ltibia 34.3231 0 0
lfoot -14.4162 5.68828 0
ltoes 2.29837 0 0
rfemur -13.5246 -0.806706 18.263
rtibia 49.2474 0 0
rfoot -6.13371 -4.92952 0
rtoes -15.9931 0 0
lowerback -5.34822 -0.383744 -2.05844
upperback -1.48523 -0.43895 1.94224
thorax 1.56114 -0.235537 3.10213
lowerneck -20.6733 -4.60769 -12.4236
upperneck 20.2176 -5.60995 12.666
head 10.6745 -2.08376 5.82804
lclavicle -6.16733e-015 1.93142e-014 0
lhumerus -29.7582 -10.7411 87.4799
lradius 22.4544 0 0
lwrist -2.08105 0 0
lhand -11.942 -23.9998 0
lfingers 7.12502 0 0
lthumb 14.112 5.48575 0
rclavicle -6.16733e-015 1.93142e-014 0
rhumerus -46.5356 8.51564 -85.0353
rradius 41.4202 0 0
rwrist -23.9763 0 0
rhand -29.3918 -24.0931 0
rfingers 7.12502 0 0
rthumb -2.73005 -54.0548 0
267
root 9.7722 16.67 0.690755 7.11296 -3.84823 0.674719
lfemur -25.4514 7.12932 -26.8022
ltibia 33.9144 0 0
lfoot -14.7191 5.68823 0
ltoes 2.14591 0 0
rfemur -14.7252 -0.870485 18.2403
rtibia 49.9562 0 0
rfoot -7.15538 -5.45372 0
rtoes -15.9956 0 0
lowerback -5.31944 -0.524486 -2.12393
upperback -1.39666 -0.62415 1.9586
thorax 1.64907 -0.330459 3.14381
lowerneck -20.7533 -4.54106 -12.3566
upperneck 20.3454 -5.51815 12.5823
head 10.7168 -2.04357 5.80445
lclavicle -8.39975e-015 1.90705e-014 0
lhumerus -28.8952 -11.0465 87.4045
lradius 22.6104 0 0
lwrist -1.90214 0 0
lhand -12.1004 -24.0089 0
lfingers 7.12502 0 0
lthumb 13.9593 5.48748 0
rclavicle -8.39975e-015 1.90705e-014 0
rhumerus -46.479 8.44475 -84.8665
rradius 41.4604 0 0
rwrist -23.8915 0 0
rhand -29.3605 -23.9233 0
rfingers 7.12502 0 0
rthumb -2.69987 -53.8855 0
268
root 9.79119 16.6836 0.819233 6.98173 -3.70597 0.785597
lfemur -24.5662 7.0076 -26.9406
ltibia 33.5057 0 0
lfoot -15.022 5.68819 0
ltoes 1.99345 0 0
rfemur -15.9258 -0.934264 18.2176
rtibia 50.665 0 0
rfoot -8.17705 -5.97792 0
rtoes -15.9981 0 0
lowerback -5.29066 -0.665229 -2.18943
upperback -1.30808 -0.80935 1.97496
thorax 1.737 -0.425381 3.1855
lowerneck -20.8332 -4.47444 -12.2897
upperneck 20.4731 -5.42635 12.4986
head 10.7591 -2.00337 5.78085
lclavicle -1.06322e-014 1.88269e-014 0
lhumerus -28.0322 -11.352 87.3291
lradius 22.7663 0 0
lwrist -1.72323 0 0
lhand -12.2588 -24.018 0
lfingers 7.12502 0 0
lthumb 13.8067 5.48921 0
rclavicle -1.06322e-014 1.88269e-014 0
rhumerus -46.4224 8.37386 -84.6978
rradius 41.5006 0 0
rwrist -23.8068 0 0
rhand -29.3293 -23.7536 0
rfingers 7.12502 0 0
rthumb -2.6697 -53.7162 0
